<svg id="svg" version="1.1" xmlns="http://www.w3.org/2000/svg" xmlns:xlink="http://www.w3.org/1999/xlink" width="400" height="455.6616643929059" viewBox="0, 0, 400,455.6616643929059"><g id="svgg"><path id="path0" d="M197.978 145.623 C 196.670 146.955,195.600 148.187,195.600 148.360 C 195.600 148.534,195.150 149.199,194.600 149.838 C 194.051 150.477,193.601 151.135,193.600 151.300 C 193.600 151.465,193.285 151.930,192.900 152.334 C 192.515 152.738,191.930 153.479,191.600 153.980 C 191.270 154.482,190.716 155.277,190.368 155.746 C 190.021 156.216,189.621 156.915,189.481 157.300 C 189.340 157.685,189.073 158.000,188.887 158.000 C 188.701 158.000,188.302 158.630,188.000 159.400 C 187.698 160.170,187.300 160.800,187.115 160.800 C 186.931 160.800,186.609 161.250,186.400 161.800 C 186.191 162.350,185.835 162.800,185.610 162.800 C 185.384 162.800,185.200 162.992,185.200 163.227 C 185.200 163.461,184.750 164.243,184.200 164.964 C 183.650 165.686,183.200 166.484,183.200 166.738 C 183.200 166.992,183.050 167.200,182.868 167.200 C 182.685 167.200,182.280 167.695,181.968 168.300 C 181.656 168.905,181.308 169.490,181.194 169.600 C 181.080 169.710,180.113 171.105,179.045 172.700 C 177.343 175.243,176.000 176.360,176.000 175.232 C 176.000 175.029,175.460 174.745,174.800 174.600 C 174.140 174.455,173.600 174.178,173.600 173.984 C 173.600 173.791,172.880 173.416,172.000 173.153 C 171.120 172.889,170.400 172.529,170.400 172.353 C 170.400 172.176,169.680 171.816,168.800 171.553 C 167.920 171.289,167.200 170.951,167.200 170.801 C 167.200 170.651,166.480 170.290,165.600 170.000 C 164.720 169.710,164.000 169.335,164.000 169.168 C 164.000 169.000,163.460 168.745,162.800 168.600 C 162.140 168.455,161.600 168.178,161.600 167.984 C 161.600 167.791,160.880 167.416,160.000 167.153 C 159.120 166.889,158.400 166.529,158.400 166.353 C 158.400 166.176,157.680 165.816,156.800 165.553 C 155.920 165.289,155.200 164.951,155.200 164.801 C 155.200 164.651,154.480 164.290,153.600 164.000 C 152.720 163.710,152.000 163.335,152.000 163.168 C 152.000 163.000,151.460 162.745,150.800 162.600 C 150.140 162.455,149.600 162.178,149.600 161.984 C 149.600 161.791,148.880 161.416,148.000 161.153 C 147.120 160.889,146.400 160.551,146.400 160.401 C 146.400 160.251,145.680 159.890,144.800 159.600 C 143.920 159.310,143.200 158.921,143.200 158.736 C 143.200 158.551,143.025 158.400,142.812 158.400 C 142.598 158.400,141.440 157.950,140.237 157.400 C 139.035 156.850,137.860 156.400,137.626 156.400 C 137.392 156.400,137.200 156.238,137.200 156.040 C 137.200 154.960,130.902 154.372,130.162 155.384 C 129.669 156.058,129.817 159.241,130.404 160.600 C 130.594 161.040,130.959 163.559,131.214 166.199 C 131.469 168.838,131.821 171.268,131.997 171.599 C 132.172 171.929,132.446 173.775,132.605 175.700 C 132.764 177.625,133.027 179.200,133.188 179.200 C 133.349 179.200,133.709 181.405,133.987 184.100 C 134.265 186.795,134.627 189.180,134.793 189.400 C 134.958 189.620,135.321 191.870,135.600 194.400 C 135.879 196.930,136.238 199.180,136.399 199.400 C 136.560 199.620,136.908 201.769,137.172 204.175 C 137.436 206.582,137.800 208.832,137.981 209.175 C 138.161 209.519,138.438 211.285,138.596 213.100 C 138.754 214.915,139.015 216.400,139.177 216.400 C 139.338 216.400,139.702 218.515,139.985 221.100 C 140.269 223.685,140.613 225.980,140.750 226.200 C 140.888 226.420,141.270 228.845,141.600 231.590 C 142.158 236.229,142.270 236.615,143.200 237.084 C 145.140 238.062,257.200 237.807,257.200 236.824 C 257.200 236.397,257.355 235.951,257.545 235.834 C 257.735 235.716,258.119 233.591,258.399 231.110 C 258.678 228.630,259.042 226.420,259.208 226.200 C 259.374 225.980,259.739 223.820,260.018 221.400 C 260.298 218.980,260.650 216.910,260.801 216.800 C 261.075 216.601,261.384 214.675,262.662 205.200 C 263.033 202.450,263.461 200.110,263.614 200.000 C 263.767 199.890,264.118 197.640,264.395 195.000 C 264.672 192.360,265.032 190.020,265.196 189.800 C 265.360 189.580,265.711 187.330,265.977 184.800 C 266.243 182.270,266.617 179.840,266.809 179.400 C 267.151 178.616,267.348 177.288,268.626 167.200 C 268.975 164.450,269.414 161.907,269.602 161.550 C 270.374 160.083,270.564 153.200,269.832 153.200 C 268.718 153.200,265.600 154.073,265.600 154.384 C 265.600 154.543,264.880 154.889,264.000 155.153 C 263.120 155.416,262.400 155.791,262.400 155.984 C 262.400 156.178,261.860 156.455,261.200 156.600 C 260.540 156.745,260.000 157.029,260.000 157.232 C 260.000 157.434,259.820 157.600,259.601 157.600 C 259.088 157.600,253.864 160.045,253.600 160.409 C 253.490 160.560,252.725 160.904,251.900 161.173 C 251.075 161.442,250.400 161.814,250.400 161.999 C 250.400 162.185,249.860 162.455,249.200 162.600 C 248.540 162.745,248.000 163.000,248.000 163.168 C 248.000 163.335,247.280 163.710,246.400 164.000 C 245.520 164.290,244.800 164.651,244.800 164.801 C 244.800 164.951,244.080 165.289,243.200 165.553 C 242.320 165.816,241.600 166.176,241.600 166.353 C 241.600 166.529,240.880 166.889,240.000 167.153 C 239.120 167.416,238.400 167.791,238.400 167.984 C 238.400 168.178,237.860 168.455,237.200 168.600 C 236.540 168.745,236.000 169.000,236.000 169.168 C 236.000 169.335,235.280 169.710,234.400 170.000 C 233.520 170.290,232.800 170.651,232.800 170.801 C 232.800 170.951,232.080 171.289,231.200 171.553 C 230.320 171.816,229.600 172.176,229.600 172.353 C 229.600 172.529,228.880 172.889,228.000 173.153 C 227.120 173.416,226.400 173.791,226.400 173.984 C 226.400 174.178,225.860 174.455,225.200 174.600 C 224.540 174.745,224.000 175.029,224.000 175.232 C 224.000 176.095,222.856 175.501,222.400 174.400 C 222.127 173.740,221.745 173.200,221.551 173.200 C 221.358 173.200,221.200 172.924,221.200 172.587 C 221.200 172.251,220.961 171.883,220.668 171.771 C 220.376 171.659,219.892 170.944,219.593 170.183 C 219.295 169.423,218.900 168.800,218.715 168.800 C 218.531 168.800,218.209 168.350,218.000 167.800 C 217.791 167.250,217.469 166.800,217.285 166.800 C 217.100 166.800,216.705 166.177,216.407 165.417 C 216.108 164.656,215.624 163.941,215.332 163.829 C 215.039 163.717,214.800 163.427,214.800 163.184 C 214.800 162.941,214.575 162.501,214.300 162.205 C 214.025 161.909,213.260 160.755,212.600 159.641 C 211.940 158.527,211.265 157.612,211.100 157.608 C 210.935 157.603,210.800 157.398,210.800 157.151 C 210.800 156.904,209.990 155.566,209.000 154.179 C 208.010 152.792,207.200 151.483,207.200 151.271 C 207.200 151.059,206.930 150.782,206.600 150.655 C 206.270 150.529,206.000 150.210,206.000 149.946 C 206.000 149.683,205.731 149.182,205.402 148.834 C 204.403 147.775,202.800 145.698,202.800 145.463 C 202.800 145.131,200.950 143.200,200.632 143.200 C 200.480 143.200,199.286 144.290,197.978 145.623 M202.801 184.763 C 203.673 185.952,204.491 187.257,204.620 187.663 C 204.749 188.068,205.010 188.400,205.200 188.400 C 205.390 188.400,205.660 188.759,205.799 189.198 C 205.938 189.636,206.270 190.221,206.535 190.498 C 206.983 190.964,209.686 194.853,210.600 196.346 C 210.820 196.706,211.225 197.144,211.500 197.320 C 211.775 197.496,212.000 197.826,212.000 198.053 C 212.000 199.324,214.974 202.065,216.108 201.838 C 217.361 201.588,224.073 198.468,224.400 197.984 C 224.510 197.822,225.365 197.460,226.300 197.181 C 227.235 196.902,228.000 196.529,228.000 196.353 C 228.000 196.176,228.720 195.816,229.600 195.553 C 230.480 195.289,231.200 194.922,231.200 194.737 C 231.200 194.552,231.375 194.400,231.588 194.400 C 231.802 194.400,232.960 193.950,234.163 193.400 C 235.365 192.850,236.540 192.400,236.774 192.400 C 237.008 192.400,237.200 192.223,237.200 192.006 C 237.200 191.789,238.010 191.408,239.000 191.158 C 239.990 190.909,240.800 190.546,240.800 190.353 C 240.800 190.159,241.064 190.000,241.387 190.000 C 242.007 190.000,241.829 196.351,241.197 196.800 C 241.042 196.910,240.691 199.070,240.417 201.600 C 240.142 204.130,239.780 206.380,239.612 206.600 C 239.444 206.820,239.070 208.755,238.782 210.900 C 238.493 213.045,238.110 214.800,237.929 214.800 C 237.748 214.800,237.600 215.160,237.600 215.600 C 237.600 216.394,237.333 216.400,200.000 216.400 L 162.400 216.400 162.400 215.000 C 162.400 214.230,162.247 213.600,162.060 213.600 C 161.873 213.600,161.486 211.440,161.200 208.800 C 160.914 206.160,160.563 204.000,160.420 204.000 C 160.277 204.000,159.936 201.984,159.662 199.519 C 159.388 197.055,159.012 194.850,158.827 194.619 C 157.940 193.516,157.891 190.000,158.762 190.000 C 159.223 190.000,159.600 190.180,159.600 190.400 C 159.600 190.620,159.825 190.802,160.100 190.804 C 160.375 190.805,163.273 192.148,166.541 193.786 C 169.809 195.425,173.134 196.980,173.930 197.243 C 174.726 197.506,175.621 197.964,175.918 198.260 C 176.214 198.557,176.714 198.800,177.029 198.800 C 177.343 198.800,177.600 198.980,177.600 199.200 C 177.600 199.420,177.808 199.600,178.061 199.600 C 178.315 199.600,179.482 200.054,180.655 200.609 C 184.246 202.307,184.916 202.307,186.565 200.609 C 187.354 199.796,188.000 198.980,188.000 198.794 C 188.000 198.609,188.229 198.219,188.509 197.929 C 189.213 197.197,192.137 192.773,192.487 191.908 C 192.645 191.519,192.926 191.200,193.112 191.200 C 193.298 191.200,193.698 190.570,194.000 189.800 C 194.302 189.030,194.674 188.400,194.826 188.400 C 194.978 188.400,195.339 187.815,195.628 187.100 C 195.917 186.385,196.389 185.656,196.677 185.480 C 196.964 185.304,197.200 184.899,197.200 184.580 C 197.200 184.261,197.335 183.995,197.500 183.989 C 197.665 183.983,198.244 183.258,198.788 182.378 L 199.775 180.777 200.496 181.689 C 200.892 182.190,201.930 183.573,202.801 184.763 " stroke="none" fill="#040404" fill-rule="evenodd"></path><path id="path1" d="M189.200 0.578 C 187.550 0.874,185.660 1.404,185.000 1.756 C 184.340 2.107,183.564 2.396,183.276 2.398 C 182.988 2.399,182.850 2.558,182.970 2.751 C 183.089 2.945,182.672 3.206,182.042 3.332 C 181.412 3.458,180.618 3.840,180.277 4.180 C 179.936 4.521,179.497 4.800,179.301 4.800 C 177.947 4.800,168.400 13.502,168.400 14.737 C 168.400 14.970,168.169 15.304,167.886 15.480 C 166.952 16.062,163.946 21.610,163.912 22.816 C 163.892 23.526,163.662 24.000,163.339 24.000 C 162.660 24.000,162.633 24.665,163.300 24.936 C 163.685 25.092,163.672 25.229,163.242 25.529 C 162.935 25.744,162.788 26.193,162.916 26.527 C 163.048 26.870,162.888 27.234,162.549 27.364 C 162.219 27.491,162.062 27.777,162.200 28.001 C 162.551 28.568,162.024 30.062,161.571 29.782 C 161.367 29.656,161.200 29.743,161.200 29.976 C 161.200 30.209,161.380 30.400,161.600 30.400 C 162.188 30.400,162.087 31.970,161.459 32.598 C 160.792 33.266,160.803 45.224,161.472 46.071 C 161.701 46.362,161.989 47.252,162.111 48.048 C 162.233 48.845,162.695 50.291,163.137 51.262 C 163.580 52.233,164.064 53.517,164.214 54.114 C 164.364 54.711,164.647 55.200,164.843 55.200 C 165.040 55.200,165.200 55.443,165.200 55.740 C 165.200 56.038,165.631 57.091,166.157 58.081 L 167.114 59.881 165.857 61.275 C 165.166 62.041,163.979 63.463,163.221 64.434 C 162.462 65.405,161.607 66.344,161.321 66.520 C 161.034 66.696,160.800 67.011,160.800 67.220 C 160.800 67.429,160.125 68.293,159.300 69.139 C 158.475 69.986,157.440 71.190,157.000 71.817 C 156.560 72.443,155.885 73.230,155.500 73.567 C 155.115 73.903,154.800 74.302,154.800 74.455 C 154.800 74.607,154.215 75.369,153.500 76.149 C 151.561 78.263,149.443 80.800,149.070 81.456 C 148.654 82.188,148.460 82.135,142.600 79.679 C 141.500 79.218,140.167 78.721,139.638 78.574 C 137.666 78.026,136.038 76.034,135.523 73.538 C 135.257 72.252,134.896 71.200,134.720 71.200 C 134.544 71.200,134.400 70.480,134.400 69.600 C 134.400 68.444,134.233 68.000,133.800 68.000 C 133.470 68.000,133.200 67.820,133.200 67.600 C 133.200 67.380,133.380 67.200,133.600 67.200 C 134.231 67.200,134.066 66.000,133.400 65.745 C 133.070 65.618,132.800 65.343,132.800 65.134 C 132.800 64.924,132.980 64.864,133.200 65.000 C 133.752 65.341,133.704 64.664,133.137 64.097 C 132.882 63.842,132.609 63.050,132.531 62.337 C 132.453 61.624,132.237 60.941,132.051 60.820 C 131.865 60.699,131.471 59.925,131.176 59.100 C 130.881 58.275,130.495 57.600,130.320 57.600 C 130.144 57.600,130.000 57.350,130.000 57.045 C 130.000 56.476,127.666 52.834,126.382 51.400 C 124.695 49.515,120.174 45.202,119.883 45.201 C 119.709 45.201,119.349 45.017,119.083 44.793 C 117.120 43.137,116.543 42.751,115.726 42.546 C 115.217 42.418,114.800 42.182,114.800 42.021 C 114.800 41.860,114.035 41.487,113.100 41.192 C 112.165 40.897,111.220 40.524,111.000 40.364 C 110.458 39.968,107.567 39.419,106.700 39.547 C 106.288 39.608,106.000 39.393,106.000 39.025 C 106.000 38.681,105.730 38.400,105.400 38.400 C 105.070 38.400,104.800 38.580,104.800 38.800 C 104.800 39.020,104.440 39.200,104.000 39.200 C 103.556 39.200,103.200 38.933,103.200 38.600 C 103.200 37.880,102.656 37.834,101.641 38.467 C 101.047 38.838,100.590 38.791,99.431 38.242 C 97.667 37.404,96.292 37.102,96.613 37.621 C 96.742 37.829,96.376 38.000,95.800 38.000 C 95.224 38.000,94.842 37.856,94.951 37.680 C 95.230 37.228,92.416 37.093,91.859 37.532 C 91.607 37.731,89.908 37.992,88.085 38.110 C 86.262 38.229,84.552 38.489,84.285 38.688 C 84.018 38.887,82.821 39.289,81.624 39.581 C 79.263 40.158,75.334 42.012,73.362 43.479 C 72.681 43.985,72.000 44.400,71.849 44.400 C 71.697 44.400,71.045 44.940,70.400 45.600 C 69.755 46.260,69.116 46.800,68.980 46.800 C 68.685 46.800,66.636 48.925,65.092 50.831 C 62.648 53.849,59.355 59.766,58.966 61.839 C 58.826 62.588,58.529 63.200,58.307 63.200 C 58.060 63.200,58.082 63.416,58.361 63.753 C 58.716 64.181,58.676 64.362,58.183 64.551 C 57.768 64.711,57.630 65.064,57.789 65.564 C 57.923 65.987,57.851 66.445,57.629 66.582 C 57.408 66.719,57.332 67.361,57.462 68.009 C 57.636 68.878,57.527 69.253,57.049 69.437 C 56.346 69.706,56.146 70.800,56.800 70.800 C 57.043 70.800,57.200 72.600,57.200 75.400 C 57.200 78.200,57.043 80.000,56.800 80.000 C 56.181 80.000,56.328 81.042,57.028 81.623 C 57.373 81.910,57.576 82.448,57.479 82.818 C 57.227 83.781,58.009 88.000,58.440 88.000 C 58.638 88.000,58.800 88.336,58.800 88.746 C 58.800 89.616,62.295 96.800,62.718 96.800 C 62.876 96.800,63.233 97.315,63.511 97.944 C 64.431 100.022,71.943 107.200,73.198 107.200 C 73.397 107.200,73.704 107.425,73.880 107.701 C 74.056 107.976,74.740 108.471,75.400 108.800 C 76.060 109.129,76.690 109.496,76.800 109.615 C 77.073 109.910,81.821 112.000,82.219 112.000 C 82.394 112.000,83.222 112.315,84.059 112.700 L 85.579 113.400 85.585 175.000 C 85.591 234.940,85.717 242.259,86.858 249.000 C 87.081 250.320,87.326 251.828,87.402 252.350 C 87.598 253.698,91.041 256.000,92.860 256.000 C 93.267 256.000,93.600 256.180,93.600 256.400 C 93.600 256.620,94.320 256.800,95.200 256.800 C 96.080 256.800,96.800 256.663,96.800 256.495 C 96.800 256.327,97.708 255.974,98.817 255.710 C 100.374 255.340,101.219 254.817,102.525 253.416 C 103.454 252.417,104.415 251.600,104.659 251.600 C 105.978 251.600,106.019 249.798,105.829 199.996 C 105.536 122.988,105.068 105.004,103.201 99.000 C 102.996 98.340,102.736 97.336,102.623 96.769 C 102.403 95.656,100.994 94.800,99.381 94.800 C 98.842 94.800,98.400 94.620,98.400 94.400 C 98.400 94.180,97.940 94.000,97.377 94.000 C 96.151 94.000,92.682 93.175,92.400 92.816 C 92.290 92.676,91.435 92.338,90.500 92.064 C 89.565 91.791,88.800 91.395,88.800 91.184 C 88.800 90.973,88.561 90.800,88.270 90.800 C 86.567 90.800,81.489 85.715,79.631 82.149 C 78.199 79.402,78.180 70.547,79.604 70.067 C 79.822 69.993,80.004 69.633,80.009 69.267 C 80.014 68.900,80.370 68.150,80.800 67.600 C 81.230 67.050,81.586 66.445,81.591 66.256 C 81.596 66.067,81.957 65.527,82.394 65.056 C 83.861 63.476,85.199 61.802,85.200 61.549 C 85.200 61.410,85.727 61.079,86.371 60.812 C 87.015 60.545,87.640 60.073,87.759 59.763 C 87.878 59.454,88.242 59.200,88.568 59.200 C 88.894 59.200,89.304 58.961,89.480 58.668 C 90.676 56.679,99.585 56.654,101.229 58.635 C 101.487 58.946,101.908 59.200,102.165 59.200 C 103.515 59.200,111.391 67.227,111.855 69.076 C 111.982 69.584,112.247 70.000,112.443 70.000 C 112.949 70.000,112.889 75.898,112.381 76.212 C 111.732 76.613,112.006 85.889,112.709 87.298 C 113.449 88.782,115.317 90.649,115.503 90.090 C 115.676 89.572,118.000 90.268,118.000 90.839 C 118.000 91.038,118.279 91.200,118.619 91.200 C 118.960 91.200,119.680 91.676,120.219 92.258 C 120.759 92.841,121.203 93.156,121.206 92.958 C 121.209 92.761,121.344 92.802,121.506 93.049 C 121.881 93.621,125.229 95.146,126.800 95.460 C 127.460 95.592,128.000 95.840,128.000 96.010 C 128.000 96.181,128.900 96.536,130.000 96.800 C 131.100 97.064,132.000 97.426,132.000 97.605 C 132.000 97.783,132.720 98.051,133.600 98.200 C 134.480 98.349,135.200 98.604,135.200 98.768 C 135.200 98.932,135.425 99.085,135.700 99.107 C 136.664 99.186,139.802 100.135,140.000 100.408 C 140.110 100.560,141.190 100.916,142.400 101.200 C 143.610 101.484,144.735 101.915,144.900 102.158 C 145.113 102.472,145.295 102.453,145.529 102.091 C 145.793 101.684,146.409 101.712,148.629 102.231 C 150.153 102.588,152.164 102.970,153.099 103.080 C 154.033 103.190,154.697 103.442,154.575 103.640 C 154.207 104.236,155.212 104.045,155.861 103.396 C 156.193 103.064,156.630 102.895,156.832 103.020 C 157.035 103.145,157.200 102.967,157.200 102.624 C 157.200 102.281,157.356 102.000,157.546 102.000 C 157.736 102.000,158.501 101.463,159.246 100.806 C 159.991 100.150,161.005 99.610,161.500 99.606 C 161.995 99.603,162.401 99.465,162.403 99.300 C 162.405 99.135,163.381 97.955,164.572 96.679 C 165.763 95.402,167.194 93.759,167.752 93.027 C 168.310 92.295,169.449 90.975,170.283 90.092 C 172.390 87.863,174.169 85.722,178.000 80.804 C 178.550 80.098,179.575 78.916,180.277 78.176 C 180.980 77.437,181.773 76.420,182.041 75.916 C 182.308 75.412,182.858 74.765,183.263 74.477 C 183.669 74.190,184.000 73.695,184.000 73.377 C 184.000 73.060,184.139 72.800,184.310 72.800 C 184.480 72.800,185.425 71.707,186.410 70.372 C 187.394 69.037,188.434 67.691,188.720 67.381 C 189.005 67.071,189.192 66.589,189.135 66.309 C 188.981 65.560,191.116 62.400,191.776 62.400 C 192.856 62.400,194.132 58.776,193.244 58.227 C 193.049 58.106,192.764 57.513,192.613 56.908 C 192.461 56.303,192.207 55.716,192.049 55.604 C 191.891 55.492,191.275 54.558,190.681 53.528 C 190.086 52.499,189.372 51.419,189.094 51.128 C 188.105 50.094,184.798 44.992,184.799 44.500 C 184.800 44.225,184.641 44.000,184.447 44.000 C 183.872 44.000,183.134 40.390,183.153 37.672 C 183.174 34.730,183.947 30.400,184.452 30.400 C 184.643 30.400,184.800 30.080,184.800 29.689 C 184.800 29.298,185.080 28.578,185.423 28.089 C 185.765 27.600,185.938 27.200,185.807 27.200 C 185.483 27.200,186.246 26.267,188.467 23.949 C 189.494 22.877,190.487 22.000,190.673 22.000 C 190.859 22.000,191.729 21.615,192.606 21.145 C 195.133 19.789,202.038 19.686,205.800 20.948 C 210.127 22.400,214.212 26.117,215.020 29.339 C 215.167 29.922,215.429 30.400,215.602 30.400 C 216.522 30.400,217.096 38.254,216.377 41.000 C 215.955 42.610,213.342 48.028,212.807 48.400 C 212.649 48.510,212.284 49.048,211.995 49.595 C 211.706 50.143,210.560 51.763,209.448 53.195 C 207.293 55.971,206.162 60.800,207.666 60.800 C 208.264 60.800,212.663 67.902,212.501 68.607 C 212.448 68.838,212.944 69.617,213.602 70.338 C 214.261 71.059,214.800 71.753,214.800 71.879 C 214.800 72.005,215.205 72.503,215.700 72.985 C 216.195 73.466,216.960 74.377,217.400 75.008 C 217.840 75.639,218.515 76.430,218.900 76.767 C 219.285 77.103,219.600 77.510,219.600 77.671 C 219.600 77.832,220.005 78.385,220.500 78.900 C 220.995 79.416,221.940 80.522,222.600 81.359 C 223.260 82.196,223.993 83.088,224.228 83.340 C 224.463 83.593,225.889 85.330,227.396 87.200 C 228.903 89.070,230.349 90.780,230.608 91.000 C 230.868 91.220,231.571 92.065,232.171 92.878 C 232.771 93.691,234.025 95.131,234.958 96.078 C 235.890 97.025,236.932 98.211,237.273 98.713 C 237.614 99.215,238.308 99.705,238.814 99.803 C 239.890 100.010,242.067 101.968,241.765 102.457 C 241.651 102.640,241.867 102.672,242.245 102.527 C 242.711 102.349,242.838 102.415,242.642 102.732 C 242.450 103.043,242.697 103.200,243.376 103.200 C 243.939 103.200,244.400 103.380,244.400 103.600 C 244.400 103.820,244.681 104.000,245.024 104.000 C 245.367 104.000,245.551 103.845,245.434 103.654 C 245.316 103.464,247.348 103.221,249.949 103.114 C 253.212 102.980,255.088 102.715,256.000 102.260 C 256.728 101.897,257.508 101.600,257.735 101.600 C 257.962 101.600,258.879 101.254,259.774 100.830 C 262.770 99.413,266.370 98.000,266.988 98.000 C 267.325 98.000,267.600 97.849,267.600 97.664 C 267.600 97.479,268.590 97.090,269.800 96.800 C 271.010 96.510,272.000 96.142,272.000 95.984 C 272.000 95.693,275.541 94.615,276.100 94.735 C 276.265 94.771,276.400 94.643,276.400 94.452 C 276.400 94.261,277.210 93.877,278.200 93.600 C 279.190 93.323,280.000 92.939,280.000 92.748 C 280.000 92.557,280.267 92.400,280.593 92.400 C 280.919 92.400,281.835 91.769,282.629 90.999 C 283.422 90.228,284.263 89.716,284.498 89.860 C 284.749 90.016,284.806 89.934,284.638 89.662 C 284.469 89.388,284.607 89.200,284.976 89.200 C 285.319 89.200,285.600 89.009,285.600 88.776 C 285.600 88.543,285.754 88.448,285.943 88.565 C 286.611 88.978,288.065 85.369,288.122 83.158 C 288.203 79.993,287.905 76.800,287.529 76.800 C 287.088 76.800,287.106 74.505,287.548 74.232 C 287.740 74.114,287.981 73.158,288.085 72.108 C 288.264 70.293,289.843 66.274,290.905 64.929 C 293.479 61.669,297.375 58.493,298.500 58.735 C 298.665 58.771,298.800 58.645,298.800 58.455 C 298.800 56.969,309.142 57.085,310.644 58.587 C 310.981 58.924,311.516 59.200,311.832 59.200 C 312.149 59.200,312.716 59.560,313.093 60.000 C 313.470 60.440,313.942 60.800,314.143 60.800 C 314.852 60.800,318.400 65.113,318.400 65.975 C 318.400 66.162,318.670 66.418,319.000 66.545 C 319.330 66.671,319.600 67.100,319.600 67.498 C 319.600 67.896,319.915 68.667,320.300 69.211 C 321.188 70.466,321.363 81.213,320.500 81.500 C 320.225 81.592,320.000 81.985,320.000 82.374 C 320.000 84.252,315.942 89.600,314.517 89.600 C 314.232 89.600,314.000 89.755,314.000 89.945 C 314.000 90.135,312.875 90.792,311.500 91.405 C 310.125 92.018,308.910 92.639,308.800 92.785 C 308.690 92.930,307.574 93.274,306.319 93.549 C 304.745 93.894,303.966 94.275,303.806 94.780 C 303.523 95.673,300.636 96.544,297.719 96.618 C 296.574 96.647,295.359 96.902,295.019 97.184 C 294.338 97.750,294.160 100.400,294.803 100.400 C 295.073 100.400,295.123 121.618,294.956 164.700 C 294.788 207.966,294.847 232.594,295.137 239.986 C 295.460 248.218,295.453 251.043,295.110 251.256 C 294.307 251.752,295.931 253.387,298.800 254.970 C 301.997 256.735,310.946 255.628,312.800 253.239 C 312.910 253.098,313.495 252.667,314.100 252.282 C 315.223 251.567,315.806 248.000,314.800 248.000 C 314.283 248.000,314.243 132.525,314.760 132.333 C 314.958 132.260,315.250 128.330,315.410 123.600 C 315.570 118.870,315.814 114.910,315.952 114.800 C 316.090 114.690,316.265 114.060,316.342 113.400 C 316.531 111.760,316.587 111.706,318.402 111.400 C 319.281 111.251,320.000 110.980,320.000 110.797 C 320.000 110.613,320.540 110.345,321.200 110.200 C 321.860 110.055,322.400 109.783,322.400 109.595 C 322.400 109.407,322.805 109.134,323.300 108.987 C 324.724 108.564,327.554 106.627,329.870 104.490 C 330.650 103.770,331.634 102.996,332.055 102.770 C 332.477 102.545,332.734 102.216,332.625 102.040 C 332.516 101.864,332.871 101.483,333.414 101.193 C 333.956 100.902,334.400 100.425,334.400 100.132 C 334.400 99.840,334.578 99.600,334.795 99.600 C 335.327 99.600,337.284 96.459,337.019 96.031 C 336.903 95.844,337.204 95.588,337.687 95.461 C 338.170 95.335,338.441 95.107,338.289 94.955 C 338.137 94.803,338.325 94.442,338.706 94.152 C 339.133 93.828,339.208 93.621,338.900 93.613 C 338.625 93.606,338.400 93.401,338.400 93.157 C 338.400 92.914,338.690 92.826,339.045 92.962 C 339.501 93.137,339.623 93.037,339.462 92.617 C 339.337 92.292,339.410 91.917,339.624 91.785 C 339.838 91.653,339.907 91.373,339.777 91.162 C 339.647 90.952,339.689 90.806,339.870 90.837 C 340.677 90.978,340.861 90.756,340.400 90.200 C 339.992 89.709,340.020 89.600,340.551 89.600 C 340.933 89.600,341.200 89.271,341.200 88.800 C 341.200 88.360,341.416 88.000,341.680 88.000 C 342.053 88.000,342.053 87.893,341.680 87.520 C 341.035 86.875,341.074 86.400,341.771 86.400 C 342.167 86.400,342.429 85.694,342.625 84.100 C 342.781 82.835,343.101 81.677,343.336 81.526 C 343.886 81.173,343.852 68.995,343.299 68.298 C 343.082 68.024,342.668 66.585,342.379 65.100 C 342.090 63.615,341.726 62.400,341.571 62.400 C 341.416 62.400,341.172 61.776,341.029 61.013 C 340.886 60.250,340.551 59.389,340.284 59.099 C 340.018 58.809,339.260 57.499,338.600 56.186 C 337.940 54.874,337.175 53.656,336.900 53.480 C 336.625 53.304,336.400 52.984,336.400 52.769 C 336.400 52.140,332.674 48.155,330.445 46.400 C 329.746 45.850,328.951 45.220,328.677 45.000 C 327.279 43.878,325.690 42.882,324.892 42.629 C 324.402 42.474,324.000 42.198,324.000 42.016 C 324.000 41.835,323.505 41.563,322.900 41.413 C 322.295 41.262,321.260 40.900,320.600 40.609 C 318.654 39.750,316.748 39.200,315.717 39.200 C 315.176 39.200,314.861 39.024,315.000 38.800 C 315.140 38.573,314.804 38.400,314.224 38.400 C 313.661 38.400,313.195 38.625,313.188 38.900 C 313.181 39.175,312.983 39.068,312.747 38.663 C 312.414 38.090,312.028 37.981,311.009 38.172 C 310.288 38.307,309.182 38.217,308.549 37.972 C 306.779 37.285,305.676 37.154,305.402 37.597 C 305.099 38.087,303.600 38.137,303.600 37.657 C 303.600 37.245,301.596 37.290,300.922 37.717 C 300.659 37.884,299.051 38.103,297.349 38.204 C 295.647 38.305,294.152 38.537,294.027 38.719 C 293.902 38.901,292.770 39.275,291.510 39.551 C 289.232 40.050,282.721 43.008,282.467 43.659 C 282.393 43.846,282.073 44.000,281.754 44.000 C 281.436 44.000,281.071 44.270,280.945 44.600 C 280.818 44.930,280.495 45.200,280.227 45.200 C 279.620 45.200,275.144 49.541,273.000 52.208 C 272.120 53.303,271.175 54.437,270.901 54.727 C 270.626 55.018,270.291 55.693,270.157 56.228 C 270.023 56.763,269.760 57.200,269.573 57.200 C 269.385 57.200,269.016 57.920,268.753 58.800 C 268.489 59.680,268.142 60.400,267.981 60.400 C 267.821 60.400,267.571 61.030,267.426 61.800 C 267.282 62.570,267.008 63.200,266.818 63.200 C 266.628 63.200,266.244 64.505,265.964 66.100 C 265.684 67.695,265.293 69.110,265.094 69.245 C 264.895 69.379,264.764 69.606,264.805 69.749 C 265.518 72.289,263.536 77.099,261.309 78.232 C 260.479 78.654,259.740 79.136,259.666 79.302 C 259.592 79.469,259.359 79.498,259.148 79.368 C 258.937 79.238,258.548 79.306,258.282 79.519 C 258.017 79.733,257.170 80.041,256.400 80.204 C 255.630 80.367,254.910 80.616,254.800 80.757 C 254.690 80.898,253.809 81.218,252.843 81.467 L 251.086 81.919 249.343 80.074 C 248.384 79.060,247.600 78.106,247.600 77.956 C 247.600 77.625,246.004 75.711,243.700 73.279 C 242.765 72.292,242.000 71.357,242.000 71.201 C 242.000 71.046,241.505 70.377,240.900 69.715 C 238.185 66.743,237.600 66.058,237.600 65.853 C 237.600 65.733,236.882 64.862,236.005 63.917 C 235.128 62.973,234.408 62.072,234.405 61.916 C 234.402 61.759,234.022 61.279,233.561 60.849 C 232.730 60.075,232.751 57.600,233.588 57.600 C 233.913 57.600,234.590 55.669,234.466 55.100 C 234.430 54.935,234.574 54.800,234.787 54.800 C 235.001 54.800,235.071 54.530,234.945 54.200 C 234.796 53.813,234.954 53.600,235.391 53.600 C 235.762 53.600,235.987 53.375,235.890 53.100 C 235.793 52.825,236.021 52.150,236.396 51.600 C 237.243 50.358,238.000 48.174,238.000 46.974 C 238.000 46.475,238.225 45.992,238.500 45.900 C 239.184 45.672,239.220 29.990,238.538 29.161 C 238.283 28.853,237.855 27.475,237.586 26.100 C 237.316 24.725,236.939 23.600,236.748 23.600 C 236.557 23.600,236.400 23.397,236.400 23.149 C 236.400 21.457,230.737 12.963,228.050 10.626 C 227.275 9.952,226.366 9.085,226.031 8.700 C 225.696 8.315,225.236 8.000,225.007 8.000 C 224.779 8.000,224.368 7.640,224.093 7.200 C 223.818 6.760,223.325 6.400,222.997 6.400 C 222.668 6.400,222.400 6.242,222.400 6.049 C 222.400 5.855,221.860 5.473,221.200 5.200 C 220.540 4.927,220.000 4.552,220.000 4.368 C 220.000 4.183,219.280 3.816,218.400 3.553 C 217.520 3.289,216.800 2.930,216.800 2.755 C 216.800 2.580,216.170 2.318,215.400 2.174 C 214.630 2.029,214.000 1.782,214.000 1.624 C 214.000 0.306,195.151 -0.490,189.200 0.578 M42.100 246.668 C 41.605 246.771,41.200 247.023,41.200 247.228 C 41.200 247.433,41.009 247.600,40.776 247.600 C 40.543 247.600,40.464 247.420,40.600 247.200 C 40.744 246.967,40.337 246.800,39.624 246.800 C 38.951 246.800,38.400 246.940,38.400 247.112 C 38.400 247.283,36.917 247.657,35.105 247.942 C 33.293 248.227,31.718 248.599,31.605 248.769 C 31.492 248.938,30.866 249.208,30.214 249.368 C 29.562 249.528,28.266 250.005,27.336 250.429 C 26.405 250.853,25.469 251.200,25.255 251.200 C 25.042 251.200,24.807 251.335,24.733 251.500 C 24.660 251.665,23.970 252.122,23.200 252.516 C 21.000 253.642,20.062 254.220,19.271 254.936 C 18.867 255.301,18.403 255.600,18.238 255.600 C 17.841 255.600,10.008 263.708,10.004 264.124 C 10.002 264.302,10.208 264.319,10.462 264.162 C 10.748 263.985,10.815 264.052,10.638 264.338 C 10.481 264.592,10.083 264.800,9.753 264.800 C 9.423 264.800,9.264 264.980,9.400 265.200 C 9.536 265.420,9.452 265.600,9.214 265.600 C 8.975 265.600,8.609 266.050,8.400 266.600 C 8.191 267.150,7.745 267.600,7.410 267.600 C 7.074 267.600,6.800 267.857,6.800 268.171 C 6.800 268.486,6.524 269.019,6.187 269.355 C 5.850 269.692,5.318 270.560,5.003 271.284 C 4.689 272.008,4.424 272.430,4.416 272.221 C 4.399 271.830,3.108 274.366,1.615 277.722 C 0.506 280.214,-0.112 285.517,0.427 287.920 C 0.655 288.937,0.781 293.585,0.716 298.563 C 0.616 306.182,0.692 307.579,1.267 308.696 C 1.634 309.409,2.054 310.534,2.199 311.196 C 2.345 311.858,2.600 312.400,2.768 312.400 C 2.935 312.400,3.310 313.120,3.600 314.000 C 3.890 314.880,4.240 315.600,4.376 315.600 C 4.513 315.600,4.848 316.095,5.120 316.700 C 6.079 318.828,6.874 320.053,7.434 320.268 C 7.745 320.388,8.000 320.676,8.000 320.909 C 8.000 321.142,8.274 321.618,8.609 321.966 C 8.944 322.315,9.742 323.285,10.382 324.121 C 11.023 324.958,11.693 325.654,11.873 325.669 C 12.664 325.732,13.666 326.769,13.382 327.230 C 13.214 327.501,13.241 327.622,13.443 327.497 C 13.918 327.204,14.836 327.926,15.695 329.270 C 16.071 329.858,16.746 330.456,17.195 330.598 C 17.644 330.741,17.925 330.998,17.819 331.169 C 17.714 331.340,18.116 331.731,18.714 332.039 C 19.311 332.347,19.944 332.824,20.120 333.099 C 20.296 333.375,20.675 333.600,20.962 333.600 C 21.250 333.600,22.298 334.221,23.292 334.980 C 24.286 335.738,25.572 336.478,26.149 336.623 C 26.727 336.768,27.200 337.024,27.200 337.191 C 27.200 337.359,28.010 337.723,29.000 338.000 C 29.990 338.277,30.800 338.644,30.800 338.815 C 30.800 338.986,31.700 339.357,32.800 339.639 C 33.900 339.921,34.800 340.285,34.800 340.449 C 34.800 340.612,35.160 340.860,35.600 341.000 C 36.395 341.252,36.400 341.605,36.400 394.728 L 36.400 448.203 37.564 449.301 C 38.204 449.906,38.979 450.400,39.286 450.400 C 39.954 450.400,42.400 452.841,42.400 453.509 C 42.400 453.768,42.985 454.299,43.700 454.690 C 46.899 456.437,92.400 455.767,92.400 453.973 C 92.400 453.768,92.687 453.600,93.037 453.600 C 93.388 453.600,93.769 453.240,93.884 452.800 C 93.999 452.360,94.240 452.000,94.420 452.000 C 94.600 452.000,94.739 451.505,94.731 450.900 C 94.722 450.295,95.004 448.450,95.357 446.800 C 95.894 444.294,95.999 440.787,96.000 425.500 L 96.000 407.200 199.841 407.200 L 303.683 407.200 303.541 429.393 L 303.400 451.586 304.600 452.070 C 305.260 452.337,305.898 452.696,306.019 452.869 C 306.139 453.042,306.859 453.264,307.619 453.361 C 309.558 453.609,312.710 454.376,314.615 455.062 C 316.883 455.879,353.919 455.698,354.921 454.866 C 355.275 454.572,355.753 454.447,355.982 454.589 C 356.212 454.731,356.400 454.567,356.400 454.224 C 356.400 453.881,356.651 453.600,356.957 453.600 C 357.264 453.600,357.601 453.374,357.707 453.099 C 357.813 452.823,358.585 452.349,359.422 452.046 C 360.260 451.743,361.138 451.333,361.373 451.134 C 361.608 450.935,362.151 450.530,362.581 450.233 C 363.343 449.705,363.364 448.873,363.489 414.146 C 363.559 394.596,363.703 375.090,363.808 370.800 C 364.239 353.306,364.377 346.830,364.388 343.506 L 364.400 340.012 366.200 339.558 C 367.190 339.309,368.000 338.966,368.000 338.797 C 368.000 338.628,368.675 338.364,369.500 338.211 C 370.325 338.059,371.540 337.690,372.200 337.392 C 372.860 337.094,374.030 336.572,374.800 336.233 C 376.089 335.665,377.099 335.084,378.178 334.289 C 378.410 334.119,379.489 333.404,380.576 332.701 C 383.951 330.520,393.600 320.296,393.600 318.902 C 393.600 318.626,393.768 318.400,393.974 318.400 C 394.180 318.400,394.576 317.770,394.854 317.000 C 395.133 316.230,395.476 315.600,395.616 315.600 C 395.757 315.600,396.110 314.880,396.400 314.000 C 396.690 313.120,397.059 312.400,397.220 312.400 C 397.380 312.400,397.637 311.725,397.791 310.900 C 397.945 310.075,398.212 309.220,398.384 309.000 C 398.948 308.276,399.272 305.600,398.795 305.600 C 398.535 305.600,398.486 305.394,398.676 305.100 C 399.051 304.521,399.113 303.200,399.151 295.000 C 399.167 291.700,399.351 288.415,399.562 287.700 C 399.820 286.822,399.809 286.400,399.528 286.400 C 399.281 286.400,399.188 285.791,399.299 284.900 C 399.511 283.202,398.837 278.400,398.386 278.400 C 398.224 278.400,397.969 277.587,397.820 276.592 C 397.671 275.598,397.380 274.889,397.174 275.016 C 396.968 275.143,396.800 274.957,396.800 274.602 C 396.800 273.995,394.474 269.234,393.966 268.800 C 393.837 268.690,393.567 268.311,393.366 267.958 C 391.085 263.957,379.821 253.638,377.700 253.607 C 377.425 253.603,377.200 253.430,377.200 253.222 C 377.200 253.014,376.705 252.574,376.100 252.245 C 372.686 250.387,370.019 249.200,369.261 249.200 C 368.788 249.200,368.400 249.036,368.400 248.836 C 368.400 248.636,367.095 248.244,365.500 247.964 C 363.905 247.684,362.472 247.263,362.315 247.028 C 361.912 246.424,341.928 246.438,341.161 247.043 C 340.853 247.286,339.450 247.705,338.045 247.974 C 336.640 248.242,335.200 248.608,334.845 248.787 C 334.490 248.966,332.400 249.987,330.200 251.056 C 328.000 252.125,326.056 253.225,325.880 253.500 C 325.704 253.775,325.308 254.000,325.000 254.000 C 324.692 254.000,324.296 254.225,324.120 254.500 C 323.944 254.775,323.440 255.208,323.000 255.463 C 322.560 255.717,322.238 256.101,322.284 256.316 C 322.331 256.531,321.881 256.805,321.284 256.927 C 320.604 257.065,320.011 257.567,319.693 258.274 C 319.414 258.893,318.710 259.746,318.127 260.168 C 317.545 260.591,317.199 260.726,317.358 260.468 C 318.092 259.280,317.202 260.187,316.025 261.824 C 315.305 262.828,314.620 263.553,314.504 263.437 C 314.387 263.321,313.779 263.895,313.151 264.713 C 312.523 265.531,311.868 266.380,311.694 266.600 C 309.855 268.931,306.000 276.099,306.000 277.187 C 306.000 277.546,305.839 278.011,305.643 278.220 C 305.231 278.658,304.320 282.734,304.544 283.133 C 304.816 283.617,303.676 297.757,303.201 299.800 C 302.945 300.900,302.686 302.340,302.625 303.000 C 302.350 305.977,299.825 307.539,298.400 305.615 C 298.237 305.394,295.745 304.849,291.600 304.129 C 284.580 302.908,270.506 302.944,265.600 304.195 C 265.050 304.335,263.385 304.651,261.900 304.896 C 260.415 305.141,259.200 305.470,259.200 305.626 C 259.200 305.782,258.030 306.130,256.600 306.400 C 255.170 306.670,254.000 307.034,254.000 307.210 C 254.000 307.386,253.281 307.651,252.402 307.800 C 251.523 307.948,250.701 308.237,250.574 308.441 C 250.448 308.646,250.177 308.709,249.972 308.583 C 249.768 308.456,249.600 308.529,249.600 308.745 C 249.600 308.960,249.060 309.255,248.400 309.400 C 247.740 309.545,247.200 309.829,247.200 310.032 C 247.200 310.234,247.065 310.362,246.900 310.316 C 246.508 310.205,241.040 312.910,240.867 313.300 C 240.687 313.704,237.600 313.685,237.600 313.280 C 237.600 313.105,236.925 312.719,236.100 312.424 C 235.275 312.129,234.510 311.776,234.400 311.640 C 234.067 311.227,229.824 309.200,229.294 309.200 C 229.022 309.200,228.800 309.033,228.800 308.829 C 228.800 308.624,227.810 308.236,226.600 307.965 C 225.390 307.694,224.400 307.342,224.400 307.182 C 224.400 307.022,223.230 306.670,221.800 306.400 C 220.370 306.130,219.200 305.764,219.200 305.587 C 219.200 305.409,217.985 305.137,216.500 304.983 C 215.015 304.828,213.620 304.594,213.400 304.463 C 212.902 304.165,212.619 304.133,206.000 303.622 C 200.571 303.204,194.961 303.417,194.565 304.056 C 194.251 304.565,192.800 304.474,192.800 303.946 C 192.800 303.629,192.223 303.580,190.900 303.784 C 189.855 303.945,188.550 304.145,188.000 304.227 C 184.466 304.759,181.772 305.323,181.600 305.567 C 181.431 305.807,177.720 306.690,176.100 306.876 C 175.825 306.908,175.600 307.070,175.600 307.238 C 175.600 307.406,174.610 307.764,173.400 308.035 C 172.190 308.306,171.200 308.679,171.200 308.864 C 171.200 309.049,171.008 309.200,170.774 309.200 C 170.540 309.200,169.365 309.650,168.163 310.200 C 166.960 310.750,165.802 311.200,165.588 311.200 C 165.375 311.200,165.200 311.367,165.200 311.571 C 165.200 311.776,164.210 312.164,163.000 312.435 C 161.790 312.706,160.800 313.079,160.800 313.264 C 160.800 313.680,159.717 313.712,159.533 313.300 C 159.339 312.867,155.301 310.800,154.649 310.800 C 154.346 310.800,153.874 310.530,153.600 310.200 C 153.326 309.870,152.809 309.594,152.451 309.586 C 152.093 309.579,151.080 309.225,150.200 308.800 C 149.320 308.375,148.240 308.020,147.800 308.011 C 147.360 308.002,146.520 307.744,145.933 307.438 C 144.954 306.928,142.921 306.459,140.408 306.166 C 139.863 306.102,139.353 305.859,139.275 305.625 C 139.077 305.030,138.003 305.092,137.988 305.700 C 137.981 305.977,137.794 305.888,137.568 305.500 C 137.306 305.051,136.674 304.800,135.804 304.800 C 135.058 304.800,134.343 304.631,134.215 304.425 C 134.088 304.218,133.492 304.097,132.892 304.155 C 132.291 304.213,131.584 304.096,131.319 303.897 C 130.086 302.966,112.781 303.194,108.000 304.204 C 107.450 304.321,105.740 304.625,104.200 304.880 C 102.660 305.135,101.310 305.469,101.200 305.623 C 101.090 305.776,100.261 306.026,99.357 306.177 L 97.714 306.451 96.889 304.326 C 96.190 302.522,96.023 300.897,95.790 293.600 C 95.401 281.415,95.226 279.707,94.162 277.667 C 93.856 277.080,93.604 276.348,93.602 276.041 C 93.601 275.733,92.786 274.023,91.790 272.241 C 89.160 267.531,89.104 267.446,86.200 263.774 C 84.243 261.300,78.738 256.000,78.124 256.000 C 77.811 256.000,74.212 253.428,74.067 253.100 C 73.993 252.935,73.723 252.799,73.467 252.797 C 73.210 252.796,71.570 252.083,69.821 251.214 C 67.451 250.035,66.510 249.743,66.121 250.065 C 65.759 250.366,65.600 250.369,65.600 250.073 C 65.600 249.840,64.790 249.528,63.800 249.379 C 62.810 249.231,62.000 248.946,62.000 248.747 C 62.000 248.548,61.552 248.497,61.004 248.635 C 60.298 248.812,59.936 248.700,59.764 248.250 C 59.571 247.748,59.352 247.705,58.717 248.044 C 58.142 248.352,57.790 248.350,57.477 248.037 C 57.237 247.797,56.176 247.600,55.120 247.600 C 54.064 247.600,53.200 247.450,53.200 247.266 C 53.200 247.083,51.445 246.934,49.300 246.935 C 47.155 246.936,44.860 246.834,44.200 246.708 C 43.540 246.582,42.595 246.564,42.100 246.668 M53.400 266.769 C 53.620 266.933,54.835 267.290,56.100 267.563 C 57.365 267.835,58.400 268.197,58.400 268.368 C 58.400 268.539,59.075 268.970,59.900 269.326 C 61.927 270.200,63.173 271.123,66.097 273.916 C 67.458 275.216,69.104 277.236,69.600 278.215 C 69.930 278.867,70.380 279.597,70.600 279.837 C 70.820 280.077,71.720 281.562,72.600 283.136 C 73.480 284.710,74.425 285.999,74.700 285.999 C 74.975 286.000,75.200 286.360,75.200 286.800 C 75.200 287.240,75.011 287.600,74.780 287.600 C 74.498 287.600,74.390 290.346,74.451 296.000 C 74.500 300.620,74.686 304.400,74.863 304.400 C 75.041 304.400,75.189 323.705,75.193 347.300 C 75.201 388.122,75.376 405.786,75.854 413.800 C 75.972 415.780,76.159 421.765,76.271 427.100 L 76.473 436.800 67.842 436.800 L 59.212 436.800 59.106 387.061 C 59.020 346.617,58.902 337.204,58.473 336.688 C 58.183 336.339,57.675 334.196,57.345 331.926 C 57.015 329.657,56.643 327.170,56.519 326.400 C 56.150 324.111,53.675 322.514,50.000 322.195 C 49.450 322.147,48.730 322.007,48.400 321.885 C 48.070 321.763,46.655 321.547,45.255 321.406 C 43.855 321.265,42.415 320.985,42.055 320.784 C 41.360 320.396,37.907 319.462,37.645 319.592 C 37.559 319.634,37.379 319.509,37.245 319.315 C 37.110 319.121,36.112 318.448,35.027 317.821 C 32.979 316.637,26.161 310.000,26.993 310.000 C 27.206 310.000,26.064 308.028,25.603 307.600 C 25.072 307.106,23.150 301.747,22.931 300.149 C 22.798 299.175,22.533 298.282,22.344 298.165 C 21.850 297.860,21.904 288.400,22.400 288.400 C 22.620 288.400,22.761 288.265,22.712 288.100 C 22.560 287.577,23.697 282.800,23.974 282.800 C 24.120 282.800,24.479 282.137,24.772 281.327 C 25.065 280.517,25.455 279.662,25.640 279.427 C 28.721 275.503,29.855 274.157,30.741 273.372 C 32.849 271.502,34.323 270.400,34.715 270.400 C 34.935 270.400,35.218 270.130,35.345 269.800 C 35.471 269.470,35.806 269.194,36.087 269.186 C 36.369 269.179,37.320 268.825,38.200 268.400 C 39.080 267.975,40.043 267.621,40.340 267.614 C 40.636 267.606,41.446 267.338,42.140 267.017 C 44.215 266.058,52.211 265.882,53.400 266.769 M356.800 266.755 C 356.800 266.950,357.655 267.234,358.700 267.386 C 360.556 267.657,364.067 269.100,364.334 269.702 C 364.408 269.869,364.633 269.903,364.834 269.779 C 365.035 269.655,365.200 269.731,365.200 269.949 C 365.200 270.168,365.522 270.448,365.915 270.573 C 367.235 270.992,372.867 276.832,373.687 278.631 C 373.930 279.164,374.280 279.600,374.464 279.600 C 374.649 279.600,374.800 279.922,374.800 280.315 C 374.800 280.709,375.168 281.744,375.618 282.615 C 377.352 285.971,378.685 296.017,377.680 298.153 C 377.461 298.619,377.064 300.080,376.797 301.400 C 376.529 302.720,376.181 303.980,376.023 304.200 C 375.864 304.420,375.486 305.230,375.182 306.000 C 374.878 306.770,374.489 307.580,374.316 307.800 C 374.144 308.020,373.149 309.370,372.106 310.800 C 371.062 312.230,369.770 313.753,369.233 314.185 C 368.697 314.616,367.820 315.376,367.285 315.872 C 366.749 316.368,365.971 316.882,365.555 317.014 C 365.140 317.146,364.800 317.386,364.800 317.547 C 364.800 317.708,364.125 318.081,363.300 318.376 C 362.475 318.671,361.710 319.036,361.600 319.186 C 361.218 319.708,357.383 320.887,354.400 321.400 C 352.750 321.684,351.400 321.948,351.400 321.987 C 351.400 322.026,350.770 322.113,350.000 322.180 C 347.925 322.361,345.434 323.099,345.274 323.579 C 345.197 323.810,344.890 324.000,344.594 324.000 C 344.297 324.000,343.940 324.360,343.800 324.800 C 343.660 325.240,343.394 325.600,343.208 325.600 C 343.022 325.600,342.923 326.083,342.988 326.672 C 343.163 328.267,341.994 334.556,341.462 334.885 C 340.782 335.304,340.557 351.143,340.580 397.100 L 340.600 436.800 333.300 436.800 L 326.000 436.800 325.965 400.700 C 325.947 380.845,325.891 351.190,325.843 334.800 C 325.740 300.064,325.979 285.706,326.668 285.281 C 326.926 285.122,327.267 284.454,327.427 283.796 C 327.586 283.138,328.050 282.122,328.458 281.538 C 328.866 280.954,329.200 280.279,329.200 280.038 C 329.200 279.797,329.336 279.600,329.502 279.600 C 329.669 279.600,330.039 279.070,330.326 278.422 C 330.799 277.355,336.902 270.800,337.424 270.800 C 337.544 270.800,338.305 270.350,339.114 269.800 C 339.923 269.250,340.904 268.800,341.293 268.800 C 341.682 268.800,342.000 268.648,342.000 268.463 C 342.000 268.068,344.712 267.200,345.946 267.200 C 346.416 267.200,346.800 267.020,346.800 266.800 C 346.800 266.555,348.733 266.400,351.800 266.400 C 354.550 266.400,356.800 266.560,356.800 266.755 M284.944 323.477 C 285.096 323.629,285.621 323.808,286.110 323.874 C 289.576 324.340,292.428 324.922,292.597 325.196 C 292.707 325.374,293.698 325.736,294.799 326.000 C 295.899 326.264,296.800 326.622,296.800 326.797 C 296.800 326.971,297.266 327.230,297.834 327.373 C 298.403 327.516,299.933 328.119,301.234 328.713 L 303.600 329.793 303.600 359.030 L 303.600 388.268 205.900 388.537 C 152.165 388.685,105.454 388.923,102.097 389.066 L 95.995 389.324 96.097 358.768 C 96.196 329.290,96.226 328.206,96.947 328.067 C 97.412 327.978,97.592 328.089,97.424 328.362 C 97.275 328.603,97.343 328.800,97.576 328.800 C 97.809 328.800,98.000 328.649,98.000 328.464 C 98.000 328.279,98.990 327.906,100.200 327.635 C 101.410 327.364,102.400 327.004,102.400 326.835 C 102.400 326.666,103.435 326.299,104.700 326.019 C 105.965 325.740,107.180 325.370,107.400 325.197 C 109.297 323.709,135.200 323.721,135.200 325.210 C 135.200 325.376,135.785 325.625,136.500 325.764 C 137.215 325.903,138.970 326.642,140.400 327.406 C 141.830 328.170,143.315 328.907,143.700 329.044 C 144.085 329.181,144.400 329.463,144.400 329.670 C 144.400 329.878,144.560 329.949,144.755 329.828 C 144.950 329.707,145.332 329.877,145.604 330.204 C 145.876 330.532,146.346 330.800,146.649 330.800 C 146.952 330.800,147.200 330.958,147.200 331.151 C 147.200 331.345,147.785 331.739,148.500 332.028 C 149.215 332.317,149.944 332.789,150.120 333.077 C 150.296 333.364,150.627 333.600,150.857 333.600 C 151.086 333.600,151.733 333.961,152.293 334.402 C 153.072 335.014,153.442 335.097,153.857 334.753 C 154.212 334.458,154.400 334.446,154.400 334.719 C 154.400 334.949,154.940 335.255,155.600 335.400 C 156.260 335.545,156.800 335.829,156.800 336.032 C 156.800 336.234,157.051 336.400,157.357 336.400 C 157.664 336.400,158.018 336.670,158.145 337.000 C 158.473 337.855,161.936 337.833,162.265 336.975 C 162.528 336.291,167.102 333.986,168.517 333.825 C 169.890 333.669,171.200 333.179,171.200 332.822 C 171.200 332.643,171.740 332.273,172.400 332.000 C 173.060 331.727,173.600 331.357,173.600 331.178 C 173.600 331.000,174.002 330.726,174.492 330.571 C 175.325 330.306,177.550 328.903,178.000 328.358 C 178.110 328.225,178.920 327.886,179.800 327.606 C 180.680 327.325,181.580 326.958,181.800 326.789 C 182.020 326.621,183.010 326.253,184.000 325.971 C 184.990 325.690,185.981 325.326,186.202 325.162 C 188.362 323.563,210.901 323.578,213.000 325.179 C 213.220 325.347,214.300 325.700,215.400 325.964 C 217.546 326.479,223.059 329.005,223.929 329.873 C 224.219 330.163,224.687 330.400,224.967 330.400 C 225.248 330.400,225.893 330.760,226.400 331.200 C 226.907 331.640,227.447 332.000,227.599 332.000 C 227.751 332.000,228.399 332.450,229.038 333.000 C 229.677 333.549,230.406 333.999,230.657 334.000 C 230.909 334.000,231.205 334.235,231.315 334.522 C 231.425 334.809,232.389 335.467,233.457 335.985 C 234.526 336.503,235.713 337.078,236.095 337.263 C 237.229 337.813,240.947 337.653,241.858 337.014 C 242.319 336.692,242.823 336.557,242.980 336.713 C 243.137 336.870,243.521 336.650,243.833 336.223 C 244.145 335.796,244.400 335.666,244.400 335.933 C 244.400 336.268,244.740 336.210,245.500 335.745 C 247.303 334.641,249.786 333.017,250.000 332.800 C 250.600 332.193,253.509 330.400,253.893 330.400 C 254.140 330.400,254.581 330.175,254.871 329.900 C 255.570 329.239,258.716 327.726,260.100 327.384 C 260.705 327.235,261.200 326.981,261.200 326.820 C 261.200 326.659,262.235 326.299,263.500 326.019 C 264.765 325.740,265.980 325.373,266.200 325.203 C 266.420 325.034,268.220 324.665,270.200 324.383 C 272.180 324.100,274.160 323.730,274.600 323.560 C 275.601 323.173,284.568 323.101,284.944 323.477 " stroke="none" fill="#d3ab04" fill-rule="evenodd"></path><path id="path2" d="M207.600 61.800 C 207.600 62.130,207.766 62.400,207.969 62.400 C 208.172 62.400,208.532 62.986,208.768 63.703 C 209.005 64.420,209.567 65.236,210.017 65.518 C 210.947 66.099,210.118 64.061,208.948 62.891 C 208.647 62.590,208.400 62.086,208.400 61.771 C 208.400 61.457,208.220 61.200,208.000 61.200 C 207.780 61.200,207.600 61.470,207.600 61.800 M191.010 63.570 C 190.865 64.026,190.578 64.400,190.373 64.400 C 190.168 64.400,190.000 64.580,190.000 64.800 C 190.000 65.020,190.151 65.200,190.336 65.200 C 190.728 65.200,191.715 63.182,191.451 62.918 C 191.353 62.820,191.154 63.113,191.010 63.570 M117.419 91.365 C 117.844 91.675,118.361 91.824,118.569 91.696 C 118.777 91.567,118.599 91.326,118.173 91.159 C 116.921 90.669,116.590 90.759,117.419 91.365 M300.129 95.330 C 299.429 95.589,298.709 95.959,298.529 96.153 C 298.054 96.663,301.186 96.037,302.392 95.381 L 303.400 94.832 302.400 94.846 C 301.850 94.854,300.828 95.072,300.129 95.330 M103.335 98.700 C 103.464 99.305,103.842 101.060,104.174 102.600 C 104.536 104.276,104.984 110.135,105.290 117.200 L 105.800 129.000 105.905 115.266 C 105.993 103.828,105.913 101.353,105.426 100.466 C 105.105 99.879,104.657 98.995,104.431 98.500 C 103.838 97.203,103.046 97.347,103.335 98.700 M294.256 101.078 C 293.931 101.402,293.927 248.288,294.252 249.500 C 295.024 252.382,295.280 249.845,294.977 242.300 C 294.601 232.942,294.655 124.341,295.042 110.555 C 295.285 101.920,295.141 100.192,294.256 101.078 M148.000 102.913 C 148.990 103.181,149.980 103.502,150.200 103.627 C 150.420 103.752,151.295 103.902,152.145 103.961 C 154.471 104.123,153.568 103.353,151.090 103.062 C 149.917 102.924,148.337 102.725,147.579 102.619 C 146.550 102.476,146.658 102.550,148.000 102.913 M247.600 103.600 C 247.600 103.820,248.151 104.000,248.824 104.000 C 249.537 104.000,249.944 103.833,249.800 103.600 C 249.664 103.380,249.113 103.200,248.576 103.200 C 248.039 103.200,247.600 103.380,247.600 103.600 M198.827 143.962 C 197.677 145.577,197.794 145.714,199.200 144.400 C 200.441 143.240,200.669 142.800,200.027 142.800 C 199.822 142.800,199.282 143.323,198.827 143.962 M129.600 154.676 C 129.600 155.951,129.668 156.061,130.100 155.477 C 130.375 155.106,131.095 154.762,131.700 154.714 C 133.161 154.597,133.088 154.265,131.472 153.680 C 129.622 153.012,129.600 153.024,129.600 154.676 M314.991 213.200 C 314.991 231.570,315.040 239.085,315.100 229.900 C 315.160 220.715,315.160 205.685,315.100 196.500 C 315.040 187.315,314.991 194.830,314.991 213.200 M84.806 238.700 C 84.803 244.095,84.958 248.400,85.155 248.400 C 85.351 248.400,85.626 249.012,85.766 249.760 C 85.906 250.508,86.318 251.363,86.680 251.660 C 87.268 252.142,87.309 252.092,87.063 251.200 C 86.279 248.360,85.613 241.530,85.601 236.200 C 85.594 232.900,85.413 229.930,85.200 229.600 C 84.944 229.203,84.810 232.290,84.806 238.700 M303.867 285.467 C 303.445 285.888,303.556 288.000,304.000 288.000 C 304.220 288.000,304.400 287.370,304.400 286.600 C 304.400 285.161,304.327 285.006,303.867 285.467 M95.600 286.400 C 95.600 286.840,95.780 287.200,96.000 287.200 C 96.220 287.200,96.400 286.840,96.400 286.400 C 96.400 285.960,96.220 285.600,96.000 285.600 C 95.780 285.600,95.600 285.960,95.600 286.400 M399.731 289.400 C 399.733 290.940,399.805 291.521,399.892 290.691 C 399.979 289.861,399.977 288.601,399.889 287.891 C 399.800 287.181,399.729 287.860,399.731 289.400 M0.164 294.600 C 0.163 298.340,0.223 299.924,0.297 298.120 C 0.371 296.315,0.372 293.255,0.298 291.320 C 0.225 289.384,0.164 290.860,0.164 294.600 M96.221 291.300 C 96.096 292.235,96.151 294.260,96.344 295.800 L 96.695 298.600 96.747 294.100 C 96.802 289.414,96.611 288.395,96.221 291.300 M303.246 292.400 C 303.270 294.506,303.375 295.102,303.600 294.400 C 304.055 292.978,304.055 290.705,303.600 290.000 C 303.332 289.586,303.223 290.328,303.246 292.400 M399.728 298.000 C 399.728 299.430,399.801 300.015,399.889 299.300 C 399.978 298.585,399.978 297.415,399.889 296.700 C 399.801 295.985,399.728 296.570,399.728 298.000 M56.950 327.900 C 57.083 328.505,57.415 330.305,57.687 331.900 C 57.958 333.495,58.328 334.800,58.509 334.800 C 58.986 334.800,58.610 329.628,58.022 328.100 C 57.409 326.508,56.609 326.358,56.950 327.900 M341.809 328.454 C 341.257 330.145,341.111 332.800,341.569 332.800 C 341.806 332.800,342.000 332.362,342.000 331.826 C 342.000 331.290,342.181 330.376,342.402 329.794 C 342.634 329.184,342.659 328.477,342.461 328.123 C 342.178 327.617,342.063 327.676,341.809 328.454 M165.620 335.234 C 162.885 336.730,162.663 336.966,164.330 336.608 C 165.727 336.309,168.354 334.813,168.383 334.300 C 168.411 333.811,167.918 333.978,165.620 335.234 M154.576 335.813 C 155.492 336.506,156.000 336.564,156.000 335.976 C 156.000 335.743,155.832 335.656,155.628 335.783 C 155.423 335.909,155.142 335.830,155.004 335.607 C 154.866 335.383,154.538 335.206,154.276 335.213 C 154.014 335.220,154.149 335.490,154.576 335.813 M325.724 349.000 C 325.726 350.320,325.801 350.812,325.890 350.093 C 325.979 349.374,325.977 348.294,325.886 347.693 C 325.795 347.092,325.722 347.680,325.724 349.000 M96.080 444.000 C 95.794 446.530,95.505 448.960,95.438 449.400 C 95.371 449.840,95.394 449.975,95.488 449.700 C 95.582 449.425,95.814 449.200,96.005 449.200 C 96.532 449.200,96.863 446.166,96.724 442.600 L 96.600 439.400 96.080 444.000 M39.118 451.000 C 39.601 451.917,41.200 453.353,41.200 452.871 C 41.200 452.694,40.637 452.021,39.948 451.375 C 39.074 450.554,38.824 450.441,39.118 451.000 " stroke="none" fill="#897529" fill-rule="evenodd"></path><path id="path3" d="M161.200 31.400 C 161.200 31.950,161.380 32.400,161.600 32.400 C 161.820 32.400,162.000 31.950,162.000 31.400 C 162.000 30.850,161.820 30.400,161.600 30.400 C 161.380 30.400,161.200 30.850,161.200 31.400 M160.901 37.400 C 160.905 38.280,160.987 38.593,161.083 38.095 C 161.179 37.598,161.175 36.878,161.075 36.495 C 160.975 36.113,160.896 36.520,160.901 37.400 M94.652 37.685 C 94.760 37.858,95.297 38.000,95.847 38.000 C 96.402 38.000,96.739 37.825,96.604 37.606 C 96.470 37.389,95.932 37.248,95.409 37.291 C 94.886 37.334,94.545 37.512,94.652 37.685 M303.600 37.600 C 303.600 37.820,303.949 38.000,304.376 38.000 C 304.803 38.000,305.264 37.820,305.400 37.600 C 305.540 37.373,305.204 37.200,304.624 37.200 C 304.061 37.200,303.600 37.380,303.600 37.600 M99.800 38.400 C 99.936 38.620,100.386 38.800,100.800 38.800 C 101.214 38.800,101.664 38.620,101.800 38.400 C 101.945 38.166,101.530 38.000,100.800 38.000 C 100.070 38.000,99.655 38.166,99.800 38.400 M103.200 38.800 C 103.200 39.020,103.560 39.200,104.000 39.200 C 104.440 39.200,104.800 39.020,104.800 38.800 C 104.800 38.580,104.440 38.400,104.000 38.400 C 103.560 38.400,103.200 38.580,103.200 38.800 M211.055 66.311 C 210.814 66.701,212.264 68.669,212.568 68.365 C 212.691 68.242,212.444 67.769,212.020 67.313 C 211.595 66.858,211.357 66.376,211.491 66.243 C 211.624 66.109,211.624 66.000,211.490 66.000 C 211.357 66.000,211.161 66.140,211.055 66.311 M56.446 75.400 C 56.449 77.984,56.616 80.000,56.826 80.000 C 57.036 80.000,57.200 77.988,57.200 75.400 C 57.200 72.764,57.038 70.800,56.820 70.800 C 56.602 70.800,56.443 72.760,56.446 75.400 M285.600 88.800 C 285.600 89.020,285.375 89.200,285.100 89.200 C 284.825 89.201,284.077 89.651,283.438 90.200 C 282.799 90.750,282.450 91.200,282.662 91.200 C 282.875 91.200,283.398 90.876,283.825 90.480 C 284.251 90.084,284.915 89.639,285.300 89.492 C 285.922 89.255,286.313 88.400,285.800 88.400 C 285.690 88.400,285.600 88.580,285.600 88.800 M115.600 89.977 C 115.600 90.344,117.587 90.947,117.868 90.666 C 117.963 90.570,117.492 90.301,116.820 90.067 C 116.149 89.833,115.600 89.793,115.600 89.977 M118.800 91.543 C 118.800 91.954,120.012 92.522,120.292 92.242 C 120.389 92.144,120.093 91.864,119.634 91.618 C 119.175 91.373,118.800 91.339,118.800 91.543 M159.656 100.413 C 158.442 101.425,158.821 101.419,160.490 100.401 C 161.211 99.962,161.530 99.608,161.200 99.615 C 160.870 99.621,160.175 99.981,159.656 100.413 M238.800 99.995 C 238.800 100.227,239.250 100.622,239.800 100.873 C 240.350 101.123,240.814 101.615,240.832 101.964 C 240.853 102.397,240.929 102.436,241.069 102.087 C 241.305 101.501,240.610 100.540,239.533 99.964 C 239.037 99.699,238.800 99.709,238.800 99.995 M145.600 102.000 C 145.600 102.220,145.971 102.400,146.424 102.400 C 146.877 102.400,147.136 102.220,147.000 102.000 C 146.864 101.780,146.493 101.600,146.176 101.600 C 145.859 101.600,145.600 101.780,145.600 102.000 M157.600 102.000 C 157.283 102.196,157.156 102.489,157.318 102.652 C 157.481 102.814,157.823 102.737,158.080 102.480 C 158.684 101.876,158.347 101.538,157.600 102.000 M149.233 102.544 C 149.325 102.623,149.940 102.808,150.600 102.956 C 151.476 103.152,151.638 103.115,151.200 102.818 C 150.660 102.453,148.832 102.198,149.233 102.544 M84.800 169.024 C 84.800 206.137,84.934 224.764,85.200 224.600 C 85.464 224.437,85.600 205.396,85.600 168.776 C 85.600 131.992,85.465 113.200,85.200 113.200 C 84.935 113.200,84.800 132.075,84.800 169.024 M294.976 133.400 C 294.976 139.560,295.032 142.024,295.099 138.876 C 295.167 135.727,295.167 130.687,295.099 127.676 C 295.031 124.664,294.976 127.240,294.976 133.400 M105.329 133.800 C 105.320 138.860,105.434 147.590,105.581 153.200 L 105.849 163.400 105.873 151.400 C 105.887 144.800,105.773 136.070,105.621 132.000 L 105.344 124.600 105.329 133.800 M314.400 143.776 C 314.400 151.214,314.544 155.242,314.816 155.410 C 315.100 155.585,315.216 151.990,315.182 144.033 C 315.153 137.292,314.979 132.400,314.766 132.400 C 314.553 132.400,314.400 137.155,314.400 143.776 M105.701 165.400 C 105.705 166.280,105.787 166.593,105.883 166.095 C 105.979 165.598,105.975 164.878,105.875 164.495 C 105.775 164.113,105.696 164.520,105.701 165.400 M294.931 237.800 C 294.933 239.340,295.005 239.921,295.092 239.091 C 295.179 238.261,295.177 237.001,295.089 236.291 C 295.000 235.581,294.929 236.260,294.931 237.800 M85.709 240.400 C 85.709 241.390,85.787 241.795,85.882 241.300 C 85.978 240.805,85.978 239.995,85.882 239.500 C 85.787 239.005,85.709 239.410,85.709 240.400 M86.101 244.200 C 86.105 245.080,86.187 245.393,86.283 244.895 C 86.379 244.398,86.375 243.678,86.275 243.295 C 86.175 242.913,86.096 243.320,86.101 244.200 M105.720 246.000 C 105.720 247.210,105.795 247.705,105.887 247.100 C 105.978 246.495,105.978 245.505,105.887 244.900 C 105.795 244.295,105.720 244.790,105.720 246.000 M45.200 246.785 C 45.891 247.248,50.772 247.333,51.461 246.894 C 51.714 246.732,50.274 246.551,48.261 246.492 C 45.706 246.416,44.781 246.505,45.200 246.785 M53.200 247.200 C 53.200 247.420,53.650 247.600,54.200 247.600 C 54.750 247.600,55.200 247.420,55.200 247.200 C 55.200 246.980,54.750 246.800,54.200 246.800 C 53.650 246.800,53.200 246.980,53.200 247.200 M59.802 248.403 C 60.095 248.877,61.073 248.929,61.348 248.485 C 61.455 248.312,61.095 248.133,60.549 248.088 C 59.977 248.040,59.660 248.174,59.802 248.403 M62.000 248.800 C 62.000 249.020,62.371 249.200,62.824 249.200 C 63.277 249.200,63.536 249.020,63.400 248.800 C 63.264 248.580,62.893 248.400,62.576 248.400 C 62.259 248.400,62.000 248.580,62.000 248.800 M103.523 252.300 C 102.434 253.568,102.283 254.226,103.353 253.038 C 103.929 252.399,104.400 251.814,104.400 251.738 C 104.400 251.438,104.096 251.632,103.523 252.300 M319.400 258.310 C 319.180 258.473,318.550 259.131,318.000 259.771 L 317.000 260.936 318.062 260.168 C 318.646 259.746,319.322 259.085,319.565 258.700 C 320.047 257.937,320.012 257.855,319.400 258.310 M399.293 285.200 C 399.293 285.970,399.375 286.285,399.476 285.900 C 399.576 285.515,399.576 284.885,399.476 284.500 C 399.375 284.115,399.293 284.430,399.293 285.200 M95.600 289.200 C 95.600 289.640,95.780 290.000,96.000 290.000 C 96.220 290.000,96.400 289.640,96.400 289.200 C 96.400 288.760,96.220 288.400,96.000 288.400 C 95.780 288.400,95.600 288.760,95.600 289.200 M399.358 293.800 C 399.358 296.880,399.421 298.087,399.497 296.482 C 399.573 294.878,399.573 292.358,399.496 290.882 C 399.419 289.407,399.357 290.720,399.358 293.800 M0.558 294.200 C 0.558 297.280,0.621 298.487,0.697 296.882 C 0.773 295.278,0.773 292.758,0.696 291.282 C 0.619 289.807,0.557 291.120,0.558 294.200 M303.441 296.327 C 303.265 297.277,303.220 298.153,303.341 298.274 C 303.671 298.605,304.088 296.617,303.914 295.541 C 303.802 294.846,303.678 295.052,303.441 296.327 M96.006 299.833 C 96.009 301.355,96.192 302.870,96.411 303.200 C 96.683 303.609,96.729 302.783,96.555 300.600 C 96.233 296.570,95.998 296.243,96.006 299.833 M399.103 300.800 C 398.631 302.417,398.715 303.589,399.238 302.690 C 399.465 302.299,399.593 301.489,399.523 300.890 L 399.395 299.800 399.103 300.800 M192.800 304.000 C 192.800 304.220,193.149 304.400,193.576 304.400 C 194.003 304.400,194.464 304.220,194.600 304.000 C 194.740 303.773,194.404 303.600,193.824 303.600 C 193.261 303.600,192.800 303.780,192.800 304.000 M197.100 323.889 C 197.815 323.978,198.985 323.978,199.700 323.889 C 200.415 323.801,199.830 323.728,198.400 323.728 C 196.970 323.728,196.385 323.801,197.100 323.889 M11.600 325.338 C 11.600 325.598,11.911 325.921,14.336 328.175 C 15.906 329.634,16.003 329.331,14.469 327.759 C 12.815 326.064,11.600 325.039,11.600 325.338 M96.267 328.267 C 96.120 328.413,96.000 342.183,96.000 358.867 L 96.000 389.200 100.100 389.116 L 104.200 389.033 100.295 388.902 L 96.390 388.771 96.495 358.385 C 96.553 341.673,96.585 328.000,96.567 328.000 C 96.548 328.000,96.413 328.120,96.267 328.267 M303.390 359.000 C 303.390 375.280,303.439 381.882,303.500 373.670 C 303.560 365.459,303.560 352.139,303.500 344.070 C 303.439 336.002,303.390 342.720,303.390 359.000 M57.664 333.474 C 57.582 335.101,58.436 337.382,58.702 336.248 C 58.799 335.834,58.696 335.383,58.472 335.244 C 58.248 335.106,57.989 334.365,57.897 333.597 L 57.728 332.200 57.664 333.474 M341.200 334.200 C 341.200 334.530,341.380 334.800,341.600 334.800 C 341.820 334.800,342.000 334.530,342.000 334.200 C 342.000 333.870,341.820 333.600,341.600 333.600 C 341.380 333.600,341.200 333.870,341.200 334.200 M156.400 336.200 C 156.674 336.530,157.191 336.779,157.549 336.754 C 158.098 336.714,158.091 336.679,157.500 336.524 C 157.115 336.424,156.800 336.175,156.800 335.971 C 156.800 335.767,156.598 335.600,156.351 335.600 C 156.041 335.600,156.056 335.785,156.400 336.200 M325.709 362.800 C 325.709 363.790,325.787 364.195,325.882 363.700 C 325.978 363.205,325.978 362.395,325.882 361.900 C 325.787 361.405,325.709 361.810,325.709 362.800 M96.095 424.100 L 96.191 441.000 96.300 424.300 L 96.409 407.600 199.801 407.600 L 303.192 407.600 303.300 426.900 L 303.408 446.200 303.504 426.700 L 303.600 407.200 199.800 407.200 L 96.000 407.200 96.095 424.100 M75.724 426.492 L 75.800 436.385 67.400 436.501 L 59.000 436.617 67.700 436.708 L 76.400 436.800 76.377 428.300 C 76.364 423.625,76.195 419.080,76.001 418.200 C 75.770 417.152,75.675 420.015,75.724 426.492 M329.721 436.698 C 331.877 436.771,335.297 436.770,337.321 436.698 C 339.344 436.625,337.580 436.566,333.400 436.567 C 329.220 436.567,327.564 436.626,329.721 436.698 M94.700 449.810 C 94.594 450.365,94.663 450.915,94.854 451.033 C 95.044 451.151,95.200 450.697,95.200 450.024 C 95.200 448.539,94.963 448.437,94.700 449.810 M40.764 451.942 C 41.554 452.790,42.278 453.417,42.373 453.336 C 42.578 453.160,39.958 450.400,39.585 450.400 C 39.444 450.400,39.974 451.094,40.764 451.942 M358.900 452.234 C 358.185 452.546,357.600 452.982,357.600 453.201 C 357.600 453.421,357.330 453.600,357.000 453.600 C 356.670 453.600,356.400 453.790,356.400 454.023 C 356.400 454.490,358.524 453.402,359.763 452.300 C 360.683 451.483,360.627 451.479,358.900 452.234 M311.200 454.442 C 311.200 454.639,311.515 454.802,311.900 454.805 C 312.285 454.808,313.050 454.925,313.600 455.065 C 314.150 455.204,314.479 455.186,314.332 455.024 C 313.897 454.548,311.200 454.047,311.200 454.442 " stroke="none" fill="#a48c1c" fill-rule="evenodd"></path><path id="path4" d="M245.600 103.600 C 245.600 103.820,246.050 104.000,246.600 104.000 C 247.150 104.000,247.600 103.820,247.600 103.600 C 247.600 103.380,247.150 103.200,246.600 103.200 C 246.050 103.200,245.600 103.380,245.600 103.600 M294.959 116.800 C 294.959 119.990,295.021 121.295,295.097 119.700 C 295.173 118.105,295.173 115.495,295.097 113.900 C 295.021 112.305,294.959 113.610,294.959 116.800 M105.328 122.400 C 105.328 123.830,105.401 124.415,105.489 123.700 C 105.578 122.985,105.578 121.815,105.489 121.100 C 105.401 120.385,105.328 120.970,105.328 122.400 M105.751 133.200 C 105.751 135.730,105.816 136.765,105.896 135.500 C 105.975 134.235,105.975 132.165,105.896 130.900 C 105.816 129.635,105.751 130.670,105.751 133.200 M314.408 201.149 C 314.396 226.477,314.524 247.200,314.693 247.199 C 315.080 247.198,315.102 155.770,314.716 155.383 C 314.559 155.226,314.421 175.821,314.408 201.149 M294.577 205.400 C 294.577 211.780,294.632 214.334,294.699 211.076 C 294.767 207.817,294.766 202.597,294.699 199.476 C 294.631 196.354,294.576 199.020,294.577 205.400 M85.067 224.667 C 84.658 225.075,84.762 228.922,85.200 229.600 C 85.470 230.018,85.590 229.320,85.594 227.300 C 85.600 224.387,85.558 224.176,85.067 224.667 M95.600 287.800 C 95.600 288.130,95.780 288.400,96.000 288.400 C 96.220 288.400,96.400 288.130,96.400 287.800 C 96.400 287.470,96.220 287.200,96.000 287.200 C 95.780 287.200,95.600 287.470,95.600 287.800 M303.600 288.600 C 303.600 288.930,303.780 289.200,304.000 289.200 C 304.220 289.200,304.400 288.930,304.400 288.600 C 304.400 288.270,304.220 288.000,304.000 288.000 C 303.780 288.000,303.600 288.270,303.600 288.600 M399.714 293.800 C 399.717 294.900,399.795 295.303,399.887 294.695 C 399.979 294.086,399.977 293.186,399.882 292.695 C 399.787 292.203,399.711 292.700,399.714 293.800 M96.101 295.800 C 96.105 296.680,96.187 296.993,96.283 296.495 C 96.379 295.998,96.375 295.278,96.275 294.895 C 96.175 294.513,96.096 294.920,96.101 295.800 M96.493 299.600 C 96.493 300.370,96.575 300.685,96.676 300.300 C 96.776 299.915,96.776 299.285,96.676 298.900 C 96.575 298.515,96.493 298.830,96.493 299.600 M96.667 328.267 C 96.520 328.413,96.443 342.138,96.495 358.767 L 96.590 389.000 96.795 358.600 C 97.021 325.086,97.033 327.900,96.667 328.267 M96.495 423.700 L 96.591 439.800 96.700 423.901 L 96.809 408.002 200.105 407.900 L 303.400 407.798 199.900 407.699 L 96.400 407.600 96.495 423.700 M40.434 451.847 C 40.965 452.533,41.480 453.023,41.579 452.935 C 41.677 452.847,41.243 452.286,40.613 451.688 L 39.469 450.600 40.434 451.847 " stroke="none" fill="#9d8421" fill-rule="evenodd"></path></g></svg>